<svg width="90" height="82" viewBox="0 0 90 82" fill="none" xmlns="http://www.w3.org/2000/svg">
<circle cx="55.5" cy="17.5" r="13.5" stroke="#7E7E7E" stroke-width="8"/>
<path d="M38.585 13C38.2039 14.436 38 15.9441 38 17.5C38 18.6987 38.121 19.8691 38.3506 21H0V13H38.585ZM90 21H72.6494C72.879 19.8691 73 18.6987 73 17.5C73 15.9441 72.7961 14.436 72.415 13H90V21Z" fill="#7E7E7E"/>
<circle cx="17.5" cy="17.5" r="13.5" transform="matrix(-1 0 0 1 52 47)" stroke="#7E7E7E" stroke-width="8"/>
<path d="M51.415 60C51.7961 61.436 52 62.9441 52 64.5C52 65.6987 51.879 66.8691 51.6494 68H90V60H51.415ZM0 68H17.3506C17.121 66.8691 17 65.6987 17 64.5C17 62.9441 17.2039 61.436 17.585 60H0V68Z" fill="#7E7E7E"/>
</svg>
