<svg width="4202" height="780" viewBox="0 0 4202 780" fill="none" xmlns="http://www.w3.org/2000/svg">
<path d="M129.443 551.166C129.498 567.166 135.878 582.495 147.191 593.809C158.505 605.122 173.834 611.503 189.834 611.558H238.209V672H189.73C173.869 671.993 158.164 668.862 143.513 662.786C128.862 656.71 115.551 647.807 104.34 636.587C93.1291 625.366 84.2374 612.048 78.1738 597.392C72.1102 582.735 68.9932 567.027 69 551.166V502.791H129.443V551.166ZM411.721 556.157C420.36 552.579 429.866 551.643 439.037 553.467C448.208 555.291 456.633 559.794 463.245 566.406C469.857 573.018 474.36 581.443 476.185 590.614C478.009 599.785 477.073 609.292 473.494 617.931C469.916 626.57 463.855 633.953 456.08 639.148C448.305 644.343 439.164 647.117 429.813 647.117C417.274 647.117 405.249 642.135 396.383 633.269C387.516 624.402 382.535 612.377 382.535 599.838C382.535 590.487 385.308 581.346 390.503 573.571C395.698 565.796 403.082 559.736 411.721 556.157ZM238.209 304.48H189.834C173.834 304.535 158.505 310.919 147.191 322.239C135.878 333.56 129.498 348.898 129.443 364.908V413.209H69V364.805C69.0068 348.934 72.1377 333.219 78.2139 318.559C84.29 303.898 93.1927 290.579 104.413 279.361C115.633 268.144 128.952 259.247 143.608 253.18C158.265 247.112 173.973 243.993 189.834 244H238.209V304.48ZM376.27 244C392.131 244.007 407.835 247.138 422.486 253.214C437.138 259.29 450.449 268.193 461.66 279.413C472.871 290.633 481.762 303.952 487.825 318.608C493.889 333.265 497.007 348.973 497 364.834V413.209H436.557V364.834C436.502 348.834 430.122 333.505 418.809 322.191C407.495 310.878 392.165 304.498 376.165 304.443H327.791V244H376.27Z" fill="url(#paint0_linear_1077_3)"/>
<path d="M283.195 276.833C283.195 376.971 364.353 458.154 464.481 458.195C364.353 458.237 283.195 539.419 283.195 639.558C283.195 539.419 202.037 458.236 101.908 458.195C202.037 458.155 283.195 376.972 283.195 276.833Z" fill="url(#paint1_linear_1077_3)"/>
<path d="M627 475.6C592.6 475.6 575.4 462.2 575.4 435.4V382C575.4 354.4 591.6 340.6 624 340.6H748.8C764.8 340.6 772.8 344.8 772.8 353.2C772.8 360.4 764.8 364 748.8 364H651C628.6 364 617.4 376 617.4 400V415C617.4 440.2 628.4 452.8 650.4 452.8H721.2C755.6 452.8 772.8 466.2 772.8 493V557.8C772.8 584.6 756.2 598 723 598H598.8C583.2 598 575.4 594.2 575.4 586.6C575.4 579.4 583.4 575.8 599.4 575.8H698.4C720 575.8 730.8 565.2 730.8 544V515.8C730.8 489 719.4 475.6 696.6 475.6H627ZM931.041 540.4V467.8C931.041 443.8 922.641 431.8 905.841 431.8H898.041C882.041 431.8 874.041 444.6 874.041 470.2V541C874.041 565.4 882.241 577.6 898.641 577.6H907.041C923.041 577.6 931.041 565.2 931.041 540.4ZM830.241 452.8C830.241 439.6 834.041 429.4 841.641 422.2C849.641 414.6 861.641 410.8 877.641 410.8H928.641C943.441 410.8 954.641 414.6 962.241 422.2C970.241 429.4 974.241 439.6 974.241 452.8V556C974.241 571.2 970.241 582 962.241 588.4C954.641 594.8 943.441 598 928.641 598H909.441C886.241 598 874.641 608.4 874.641 629.2V640C874.641 660.8 867.441 671.2 853.041 671.2C837.841 671.2 830.241 661.8 830.241 643V452.8ZM1111.03 399.4H1060.03C1044.83 399.4 1037.23 395.8 1037.23 388.6C1037.23 381.8 1044.43 378.4 1058.83 378.4H1130.23C1159.83 378.4 1174.63 393.6 1174.63 424V554.8C1174.63 583.6 1159.83 598 1130.23 598H1079.83C1047.43 598 1031.23 586.2 1031.23 562.6V484.6C1031.23 474.6 1035.03 466.6 1042.63 460.6C1050.23 454.2 1062.03 451 1078.03 451H1109.83C1124.23 451 1131.43 443.8 1131.43 429.4V423.4C1131.43 407.4 1124.63 399.4 1111.03 399.4ZM1073.83 500.8V546.4C1073.83 567.2 1083.63 577.6 1103.23 577.6C1122.03 577.6 1131.43 567.2 1131.43 546.4V500.8C1131.43 481.2 1122.03 471.4 1103.23 471.4C1083.63 471.4 1073.83 481.2 1073.83 500.8ZM1253.82 328C1267.82 328 1274.82 338.4 1274.82 359.2V379C1274.82 400.2 1286.42 410.8 1309.62 410.8H1321.02C1337.02 410.8 1345.02 414.2 1345.02 421C1345.02 428.2 1337.02 431.8 1321.02 431.8H1309.62C1286.42 431.8 1274.82 445.8 1274.82 473.8V539.8C1274.82 563.4 1286.22 575.2 1309.02 575.2H1323.42C1339.02 575.2 1346.82 579 1346.82 586.6C1346.82 594.2 1339.62 598 1325.22 598H1275.42C1246.22 598 1231.62 583.4 1231.62 554.2V356.2C1231.62 337.4 1239.02 328 1253.82 328ZM1409.21 358.6C1394.01 358.6 1386.41 353.2 1386.41 342.4C1386.41 331.6 1394.01 326.2 1409.21 326.2C1423.61 326.2 1430.81 331.6 1430.81 342.4C1430.81 353.2 1423.61 358.6 1409.21 358.6ZM1409.21 600.4C1394.41 600.4 1387.01 591.2 1387.01 572.8V440.2C1387.01 421.4 1394.41 412 1409.21 412C1423.21 412 1430.21 421 1430.21 439V572.2C1430.21 591 1423.21 600.4 1409.21 600.4ZM1571.58 399.4H1520.58C1505.38 399.4 1497.78 395.8 1497.78 388.6C1497.78 381.8 1504.98 378.4 1519.38 378.4H1590.78C1620.38 378.4 1635.18 393.6 1635.18 424V554.8C1635.18 583.6 1620.38 598 1590.78 598H1540.38C1507.98 598 1491.78 586.2 1491.78 562.6V484.6C1491.78 474.6 1495.58 466.6 1503.18 460.6C1510.78 454.2 1522.58 451 1538.58 451H1570.38C1584.78 451 1591.98 443.8 1591.98 429.4V423.4C1591.98 407.4 1585.18 399.4 1571.58 399.4ZM1534.38 500.8V546.4C1534.38 567.2 1544.18 577.6 1563.78 577.6C1582.58 577.6 1591.98 567.2 1591.98 546.4V500.8C1591.98 481.2 1582.58 471.4 1563.78 471.4C1544.18 471.4 1534.38 481.2 1534.38 500.8ZM1716.77 601C1702.37 601 1695.17 591.4 1695.17 572.2V356.8C1695.17 338.4 1702.37 329.2 1716.77 329.2C1730.77 329.2 1737.77 338.4 1737.77 356.8V572.2C1737.77 591.4 1730.77 601 1716.77 601ZM1889.94 512.8H1850.94C1817.74 512.8 1801.14 501.4 1801.14 478.6V453.4C1801.14 425 1817.14 410.8 1849.14 410.8H1916.34C1931.54 410.8 1939.14 414 1939.14 420.4C1939.14 428 1931.14 431.8 1915.14 431.8H1861.74C1850.14 431.8 1844.34 438.4 1844.34 451.6V478C1844.34 488.4 1850.14 493.6 1861.74 493.6H1895.94C1926.34 493.6 1942.74 506 1945.14 530.8V554.8C1945.14 583.6 1929.34 598 1897.74 598H1823.34C1808.54 598 1801.14 594.2 1801.14 586.6C1801.14 579.4 1809.14 575.8 1825.14 575.8H1889.94C1901.54 575.8 1907.34 569.4 1907.34 556.6V529.6C1907.34 518.4 1901.54 512.8 1889.94 512.8ZM2102.33 466.6C2102.33 444.2 2093.73 433 2076.53 433H2068.73C2052.73 433 2044.73 445 2044.73 469V569.8C2044.73 591 2037.73 601.6 2023.73 601.6C2008.53 601.6 2000.93 591.8 2000.93 572.2V359.2C2000.93 340.4 2008.53 331 2023.73 331C2037.73 331 2044.73 341.4 2044.73 362.2V383.8C2044.73 402.6 2056.33 412 2079.53 412H2098.73C2113.93 412 2125.33 415.6 2132.93 422.8C2140.53 430 2144.33 440 2144.33 452.8V573.4C2144.33 592.2 2137.33 601.6 2123.33 601.6C2109.33 601.6 2102.33 591 2102.33 569.8V466.6ZM2345.92 556.6C2345.92 571.4 2341.92 582 2333.92 588.4C2326.32 594.8 2315.12 598 2300.32 598H2250.52C2218.52 598 2202.52 584.2 2202.52 556.6V452.8C2202.52 440 2206.32 429.8 2213.92 422.2C2221.52 414.6 2233.32 410.8 2249.32 410.8H2300.32C2315.12 410.8 2326.32 414.6 2333.92 422.2C2341.92 429.8 2345.92 440.2 2345.92 453.4V556.6ZM2302.72 541V467.8C2302.72 444.2 2294.32 432.4 2277.52 432.4H2269.72C2254.12 432.4 2246.32 445.2 2246.32 470.8V541.6C2246.32 565.6 2254.32 577.6 2270.32 577.6H2279.32C2294.92 577.6 2302.72 565.4 2302.72 541ZM2425.11 328C2439.11 328 2446.11 338.4 2446.11 359.2V379C2446.11 400.2 2457.71 410.8 2480.91 410.8H2492.31C2508.31 410.8 2516.31 414.2 2516.31 421C2516.31 428.2 2508.31 431.8 2492.31 431.8H2480.91C2457.71 431.8 2446.11 445.8 2446.11 473.8V539.8C2446.11 563.4 2457.51 575.2 2480.31 575.2H2494.71C2510.31 575.2 2518.11 579 2518.11 586.6C2518.11 594.2 2510.91 598 2496.51 598H2446.71C2417.51 598 2402.91 583.4 2402.91 554.2V356.2C2402.91 337.4 2410.31 328 2425.11 328Z" fill="white"/>
<defs>
<linearGradient id="paint0_linear_1077_3" x1="283" y1="244" x2="702.01" y2="739.034" gradientUnits="userSpaceOnUse">
<stop stop-color="#1D7BD0"/>
<stop offset="1" stop-color="#7E51CB"/>
</linearGradient>
<linearGradient id="paint1_linear_1077_3" x1="193.537" y1="417.556" x2="388.655" y2="505.481" gradientUnits="userSpaceOnUse">
<stop stop-color="#874DCA"/>
<stop offset="1" stop-color="#0D82D1"/>
</linearGradient>
</defs>
</svg>
