<svg width="734" height="93" viewBox="0 0 734 93" fill="none" xmlns="http://www.w3.org/2000/svg">
<path d="M87.1641 76.5859C84.4922 76.5859 82.1562 76.1953 80.1562 75.4141C78.1719 74.6172 76.6094 73.4844 75.4688 72.0156C74.3281 70.5312 73.6875 68.75 73.5469 66.6719L73.5234 66.2969H80.2031L80.25 66.5547C80.4062 67.4297 80.7969 68.1875 81.4219 68.8281C82.0625 69.4531 82.8906 69.9453 83.9062 70.3047C84.9219 70.6484 86.0703 70.8203 87.3516 70.8203C88.6641 70.8203 89.7891 70.6484 90.7266 70.3047C91.6797 69.9453 92.4141 69.4453 92.9297 68.8047C93.4609 68.1484 93.7266 67.3906 93.7266 66.5312V66.5078C93.7266 65.3672 93.2734 64.4766 92.3672 63.8359C91.4766 63.1797 89.9766 62.6328 87.8672 62.1953L84.3047 61.4922C80.9766 60.8203 78.4688 59.6875 76.7812 58.0938C75.0938 56.5 74.25 54.4297 74.25 51.8828V51.8594C74.25 49.7969 74.8047 48 75.9141 46.4688C77.0234 44.9219 78.5469 43.7266 80.4844 42.8828C82.4219 42.0234 84.6406 41.5938 87.1406 41.5938C89.75 41.5938 92 42 93.8906 42.8125C95.7969 43.625 97.2812 44.7734 98.3438 46.2578C99.4062 47.7422 99.9922 49.4688 100.102 51.4375L100.125 51.8828H93.4453L93.4219 51.6016C93.2969 50.7109 92.9609 49.9531 92.4141 49.3281C91.8672 48.6875 91.1406 48.1953 90.2344 47.8516C89.3438 47.5078 88.3125 47.3359 87.1406 47.3359C85.9375 47.3359 84.8984 47.5156 84.0234 47.875C83.1484 48.2188 82.4766 48.6953 82.0078 49.3047C81.5547 49.9141 81.3281 50.625 81.3281 51.4375V51.4609C81.3281 52.5234 81.7812 53.3828 82.6875 54.0391C83.5938 54.6953 85.0156 55.2188 86.9531 55.6094L90.5391 56.3359C92.8984 56.8047 94.8359 57.4531 96.3516 58.2812C97.8672 59.1094 98.9844 60.1562 99.7031 61.4219C100.438 62.6719 100.805 64.1797 100.805 65.9453V65.9688C100.805 68.1406 100.258 70.0234 99.1641 71.6172C98.0859 73.1953 96.5234 74.4219 94.4766 75.2969C92.4453 76.1562 90.0078 76.5859 87.1641 76.5859ZM104.555 84.2031V50.875H111.398V55.2578H111.562C112.016 54.2422 112.609 53.3672 113.344 52.6328C114.094 51.8984 114.961 51.3359 115.945 50.9453C116.945 50.5547 118.039 50.3594 119.227 50.3594C121.352 50.3594 123.18 50.8828 124.711 51.9297C126.242 52.9609 127.422 54.4531 128.25 56.4062C129.078 58.3594 129.492 60.6953 129.492 63.4141V63.4375C129.492 66.1562 129.078 68.4922 128.25 70.4453C127.438 72.3984 126.273 73.8984 124.758 74.9453C123.242 75.9922 121.43 76.5156 119.32 76.5156C118.133 76.5156 117.031 76.3203 116.016 75.9297C115 75.5391 114.117 74.9922 113.367 74.2891C112.617 73.5703 112.008 72.7109 111.539 71.7109H111.398V84.2031H104.555ZM116.977 70.8438C118.117 70.8438 119.102 70.5469 119.93 69.9531C120.758 69.3438 121.398 68.4844 121.852 67.375C122.305 66.2656 122.531 64.9531 122.531 63.4375V63.4141C122.531 61.8828 122.305 60.5625 121.852 59.4531C121.398 58.3438 120.75 57.5 119.906 56.9219C119.078 56.3281 118.102 56.0312 116.977 56.0312C115.867 56.0312 114.891 56.3359 114.047 56.9453C113.203 57.5391 112.547 58.3906 112.078 59.5C111.609 60.5938 111.375 61.9062 111.375 63.4375V63.4609C111.375 64.9609 111.609 66.2656 112.078 67.375C112.562 68.4844 113.219 69.3438 114.047 69.9531C114.891 70.5469 115.867 70.8438 116.977 70.8438ZM140.531 76.3984C138.859 76.3984 137.391 76.0781 136.125 75.4375C134.859 74.7812 133.867 73.8828 133.148 72.7422C132.445 71.5859 132.094 70.2734 132.094 68.8047V68.7578C132.094 67.2266 132.477 65.9219 133.242 64.8438C134.008 63.75 135.117 62.8906 136.57 62.2656C138.023 61.6406 139.789 61.2578 141.867 61.1172L151.664 60.5078V64.7734L142.898 65.3359C141.586 65.4141 140.586 65.7266 139.898 66.2734C139.211 66.8047 138.867 67.5156 138.867 68.4062V68.4531C138.867 69.375 139.219 70.1016 139.922 70.6328C140.625 71.1484 141.57 71.4062 142.758 71.4062C143.773 71.4062 144.68 71.2109 145.477 70.8203C146.289 70.4141 146.922 69.8672 147.375 69.1797C147.844 68.4766 148.078 67.6875 148.078 66.8125V59.1953C148.078 58.0859 147.727 57.2109 147.023 56.5703C146.32 55.9141 145.297 55.5859 143.953 55.5859C142.672 55.5859 141.656 55.8516 140.906 56.3828C140.156 56.9141 139.695 57.5859 139.523 58.3984L139.477 58.6094H133.219L133.242 58.3281C133.367 56.7812 133.875 55.4062 134.766 54.2031C135.672 53 136.922 52.0625 138.516 51.3906C140.125 50.7031 142.031 50.3594 144.234 50.3594C146.406 50.3594 148.289 50.7109 149.883 51.4141C151.477 52.1016 152.711 53.0781 153.586 54.3438C154.477 55.6094 154.922 57.0859 154.922 58.7734V76H148.078V72.25H147.938C147.469 73.1094 146.859 73.8516 146.109 74.4766C145.375 75.0859 144.539 75.5625 143.602 75.9062C142.664 76.2344 141.641 76.3984 140.531 76.3984ZM169.336 76.5156C166.555 76.5156 164.492 75.9297 163.148 74.7578C161.805 73.5859 161.133 71.6562 161.133 68.9688V56.0312H157.641V50.875H161.133V44.7344H168.047V50.875H172.641V56.0312H168.047V68.2188C168.047 69.3906 168.305 70.2109 168.82 70.6797C169.352 71.1328 170.133 71.3594 171.164 71.3594C171.477 71.3594 171.75 71.3516 171.984 71.3359C172.219 71.3047 172.438 71.2734 172.641 71.2422V76.2578C172.266 76.3203 171.797 76.375 171.234 76.4219C170.688 76.4844 170.055 76.5156 169.336 76.5156ZM176.555 76V50.875H183.398V76H176.555ZM179.977 47.6406C178.945 47.6406 178.078 47.2891 177.375 46.5859C176.672 45.8828 176.32 45.0469 176.32 44.0781C176.32 43.0938 176.672 42.2578 177.375 41.5703C178.078 40.8672 178.945 40.5156 179.977 40.5156C181.008 40.5156 181.875 40.8672 182.578 41.5703C183.281 42.2578 183.633 43.0938 183.633 44.0781C183.633 45.0469 183.281 45.8828 182.578 46.5859C181.875 47.2891 181.008 47.6406 179.977 47.6406ZM195.469 76.3984C193.797 76.3984 192.328 76.0781 191.062 75.4375C189.797 74.7812 188.805 73.8828 188.086 72.7422C187.383 71.5859 187.031 70.2734 187.031 68.8047V68.7578C187.031 67.2266 187.414 65.9219 188.18 64.8438C188.945 63.75 190.055 62.8906 191.508 62.2656C192.961 61.6406 194.727 61.2578 196.805 61.1172L206.602 60.5078V64.7734L197.836 65.3359C196.523 65.4141 195.523 65.7266 194.836 66.2734C194.148 66.8047 193.805 67.5156 193.805 68.4062V68.4531C193.805 69.375 194.156 70.1016 194.859 70.6328C195.562 71.1484 196.508 71.4062 197.695 71.4062C198.711 71.4062 199.617 71.2109 200.414 70.8203C201.227 70.4141 201.859 69.8672 202.312 69.1797C202.781 68.4766 203.016 67.6875 203.016 66.8125V59.1953C203.016 58.0859 202.664 57.2109 201.961 56.5703C201.258 55.9141 200.234 55.5859 198.891 55.5859C197.609 55.5859 196.594 55.8516 195.844 56.3828C195.094 56.9141 194.633 57.5859 194.461 58.3984L194.414 58.6094H188.156L188.18 58.3281C188.305 56.7812 188.812 55.4062 189.703 54.2031C190.609 53 191.859 52.0625 193.453 51.3906C195.062 50.7031 196.969 50.3594 199.172 50.3594C201.344 50.3594 203.227 50.7109 204.82 51.4141C206.414 52.1016 207.648 53.0781 208.523 54.3438C209.414 55.6094 209.859 57.0859 209.859 58.7734V76H203.016V72.25H202.875C202.406 73.1094 201.797 73.8516 201.047 74.4766C200.312 75.0859 199.477 75.5625 198.539 75.9062C197.602 76.2344 196.578 76.3984 195.469 76.3984ZM214.453 76V42.1797H221.297V76H214.453ZM236.25 76.5156C233.938 76.5156 231.969 76.1797 230.344 75.5078C228.719 74.8359 227.445 73.9062 226.523 72.7188C225.617 71.5156 225.07 70.125 224.883 68.5469L224.859 68.3359H231.539L231.586 68.5469C231.805 69.5312 232.297 70.2969 233.062 70.8438C233.828 71.3906 234.891 71.6641 236.25 71.6641C237.125 71.6641 237.867 71.5625 238.477 71.3594C239.086 71.1406 239.555 70.8359 239.883 70.4453C240.227 70.0547 240.398 69.5859 240.398 69.0391V69.0156C240.398 68.3438 240.156 67.8047 239.672 67.3984C239.188 66.9922 238.328 66.6484 237.094 66.3672L232.828 65.4766C231.203 65.1328 229.844 64.6406 228.75 64C227.672 63.3438 226.859 62.5391 226.312 61.5859C225.766 60.6172 225.492 59.5078 225.492 58.2578V58.2344C225.492 56.625 225.922 55.2344 226.781 54.0625C227.641 52.8906 228.859 51.9844 230.438 51.3438C232.031 50.6875 233.891 50.3594 236.016 50.3594C238.234 50.3594 240.117 50.7188 241.664 51.4375C243.227 52.1406 244.422 53.0938 245.25 54.2969C246.094 55.5 246.539 56.8359 246.586 58.3047V58.5391H240.281L240.258 58.3516C240.148 57.4453 239.727 56.6953 238.992 56.1016C238.273 55.4922 237.281 55.1875 236.016 55.1875C235.234 55.1875 234.555 55.2969 233.977 55.5156C233.398 55.7344 232.953 56.0469 232.641 56.4531C232.328 56.8438 232.172 57.3125 232.172 57.8594V57.8828C232.172 58.3047 232.273 58.6875 232.477 59.0312C232.695 59.3594 233.055 59.6484 233.555 59.8984C234.055 60.1484 234.727 60.3672 235.57 60.5547L239.836 61.4688C242.477 62.0156 244.367 62.8359 245.508 63.9297C246.664 65.0234 247.242 66.4922 247.242 68.3359V68.3594C247.242 70 246.773 71.4297 245.836 72.6484C244.898 73.8672 243.602 74.8203 241.945 75.5078C240.305 76.1797 238.406 76.5156 236.25 76.5156ZM250.781 76V42.1797H257.625V55.2109H257.766C258.422 53.6484 259.398 52.4531 260.695 51.625C262.008 50.7812 263.602 50.3594 265.477 50.3594C267.305 50.3594 268.875 50.7656 270.188 51.5781C271.5 52.375 272.508 53.5078 273.211 54.9766C273.93 56.4453 274.289 58.1953 274.289 60.2266V76H267.445V61.6328C267.445 59.8828 267.023 58.5156 266.18 57.5312C265.352 56.5312 264.156 56.0312 262.594 56.0312C261.594 56.0312 260.719 56.2734 259.969 56.7578C259.234 57.2266 258.656 57.8828 258.234 58.7266C257.828 59.5547 257.625 60.5156 257.625 61.6094V76H250.781ZM290.227 76.5156C287.68 76.5156 285.477 75.9922 283.617 74.9453C281.758 73.8984 280.32 72.3984 279.305 70.4453C278.289 68.4922 277.781 66.1562 277.781 63.4375V63.3906C277.781 60.6875 278.297 58.3672 279.328 56.4297C280.359 54.4766 281.805 52.9766 283.664 51.9297C285.523 50.8828 287.703 50.3594 290.203 50.3594C292.719 50.3594 294.906 50.8828 296.766 51.9297C298.641 52.9609 300.094 54.4531 301.125 56.4062C302.156 58.3438 302.672 60.6719 302.672 63.3906V63.4375C302.672 66.1719 302.156 68.5156 301.125 70.4688C300.109 72.4219 298.672 73.9219 296.812 74.9688C294.953 76 292.758 76.5156 290.227 76.5156ZM290.25 71.1484C291.359 71.1484 292.32 70.8516 293.133 70.2578C293.961 69.6484 294.594 68.7734 295.031 67.6328C295.484 66.4766 295.711 65.0781 295.711 63.4375V63.3906C295.711 61.7656 295.484 60.3828 295.031 59.2422C294.578 58.1016 293.938 57.2344 293.109 56.6406C292.281 56.0312 291.312 55.7266 290.203 55.7266C289.109 55.7266 288.148 56.0312 287.32 56.6406C286.508 57.2344 285.875 58.1016 285.422 59.2422C284.969 60.3828 284.742 61.7656 284.742 63.3906V63.4375C284.742 65.0781 284.961 66.4766 285.398 67.6328C285.852 68.7734 286.492 69.6484 287.32 70.2578C288.148 70.8516 289.125 71.1484 290.25 71.1484ZM316.195 76.5156C313.414 76.5156 311.352 75.9297 310.008 74.7578C308.664 73.5859 307.992 71.6562 307.992 68.9688V56.0312H304.5V50.875H307.992V44.7344H314.906V50.875H319.5V56.0312H314.906V68.2188C314.906 69.3906 315.164 70.2109 315.68 70.6797C316.211 71.1328 316.992 71.3594 318.023 71.3594C318.336 71.3594 318.609 71.3516 318.844 71.3359C319.078 71.3047 319.297 71.2734 319.5 71.2422V76.2578C319.125 76.3203 318.656 76.375 318.094 76.4219C317.547 76.4844 316.914 76.5156 316.195 76.5156Z" fill="#FBFBFB"/>
<path d="M14.7559 69.4961C14.7638 71.8138 15.6883 74.034 17.3271 75.6729C18.966 77.3117 21.1862 78.2362 23.5039 78.2441H30.5117V87H23.4893C21.1916 86.999 18.9163 86.5452 16.7939 85.665C14.6716 84.7848 12.7431 83.4955 11.1191 81.8701C9.49523 80.2448 8.20745 78.3154 7.3291 76.1924C6.45074 74.0693 5.99903 71.7937 6 69.4961V62.4883H14.7559V69.4961ZM55.6465 70.2188C56.8979 69.7004 58.275 69.5649 59.6035 69.8291C60.9321 70.0934 62.1525 70.7463 63.1104 71.7041C64.0679 72.6618 64.7201 73.8817 64.9844 75.21C65.2486 76.5385 65.1131 77.9165 64.5947 79.168C64.0763 80.4192 63.1984 81.4887 62.0723 82.2412C60.9461 82.9937 59.622 83.3955 58.2676 83.3955C56.4513 83.3955 54.7092 82.6739 53.4248 81.3896C52.1405 80.1053 51.419 78.3632 51.4189 76.5469C51.4189 75.1923 51.8207 73.8675 52.5732 72.7412C53.3258 71.6151 54.3952 70.7371 55.6465 70.2188ZM30.5117 33.7607H23.5039C21.1862 33.7687 18.966 34.6941 17.3271 36.334C15.6883 37.9739 14.7638 40.1955 14.7559 42.5146V49.5117H6V42.5C6.00099 40.2009 6.45479 37.9245 7.33496 35.8008C8.21515 33.6771 9.50449 31.7471 11.1299 30.1221C12.7552 28.4972 14.6847 27.209 16.8076 26.3301C18.9307 25.4512 21.2063 24.999 23.5039 25H30.5117V33.7607ZM50.5107 25C52.8084 25.001 55.0837 25.4548 57.2061 26.335C59.3284 27.2152 61.2569 28.5045 62.8809 30.1299C64.5048 31.7552 65.7925 33.6846 66.6709 35.8076C67.5493 37.9307 68.001 40.2063 68 42.5039V49.5117H59.2441V42.5039C59.2362 40.1862 58.3117 37.966 56.6729 36.3271C55.034 34.6883 52.8138 33.7638 50.4961 33.7559H43.4883V25H50.5107Z" fill="url(#paint0_linear_2303_18)"/>
<path d="M37.0284 29.7562C37.0284 44.0391 48.4259 55.6601 62.6221 56.0199L63.3008 56.0287C48.7912 56.0287 37.0286 67.7906 37.0284 82.3001C37.0282 68.0174 25.6307 56.3963 11.4346 56.0365L10.7559 56.0287C25.2656 56.0287 37.0284 44.2659 37.0284 29.7562Z" fill="url(#paint1_linear_2303_18)"/>
<defs>
<linearGradient id="paint0_linear_2303_18" x1="37" y1="25" x2="97.6977" y2="96.7105" gradientUnits="userSpaceOnUse">
<stop stop-color="#1D7BD0"/>
<stop offset="1" stop-color="#7E51CB"/>
</linearGradient>
<linearGradient id="paint1_linear_2303_18" x1="24.035" y1="50.1413" x2="52.3078" y2="62.8871" gradientUnits="userSpaceOnUse">
<stop stop-color="#874DCA"/>
<stop offset="1" stop-color="#0D82D1"/>
</linearGradient>
</defs>
</svg>
