<svg width="2474" height="428" viewBox="0 0 2474 428" fill="none" xmlns="http://www.w3.org/2000/svg">
<path d="M60.4434 307.166C60.498 323.166 66.8777 338.495 78.1914 349.809C89.5051 361.122 104.834 367.503 120.834 367.558H169.209V428H120.73C104.869 427.993 89.1641 424.862 74.5127 418.786C59.8615 412.71 46.5506 403.807 35.3399 392.587C24.1291 381.366 15.2374 368.048 9.17384 353.392C3.11025 338.735 -0.00678613 323.027 1.10929e-05 307.166V258.791H60.4434V307.166ZM342.721 312.157C351.36 308.579 360.866 307.643 370.037 309.467C379.208 311.291 387.633 315.794 394.245 322.406C400.857 329.018 405.36 337.443 407.185 346.614C409.009 355.785 408.073 365.292 404.494 373.931C400.916 382.57 394.855 389.953 387.08 395.148C379.305 400.343 370.164 403.117 360.813 403.117C348.274 403.117 336.249 398.135 327.383 389.269C318.516 380.402 313.535 368.377 313.535 355.838C313.535 346.487 316.308 337.346 321.503 329.571C326.698 321.796 334.082 315.736 342.721 312.157ZM169.209 60.4805H120.834C104.834 60.5351 89.5051 66.9187 78.1914 78.2393C66.8777 89.5599 60.498 104.898 60.4434 120.908V169.209H1.10929e-05V120.805C0.00681125 104.934 3.13771 89.219 9.21388 74.5586C15.29 59.8983 24.1927 46.579 35.4131 35.3613C46.6335 24.1437 59.952 15.247 74.6084 9.1797C89.265 3.1124 104.973 -0.00678205 120.834 1.10719e-05H169.209V60.4805ZM307.27 1.10719e-05C323.131 0.00685903 338.835 3.13782 353.486 9.21388C368.138 15.29 381.449 24.1926 392.66 35.4131C403.871 46.6334 412.762 59.952 418.825 74.6084C424.889 89.265 428.007 104.973 428 120.834V169.209H367.557V120.834C367.502 104.834 361.122 89.5051 349.809 78.1914C338.495 66.8777 323.165 60.498 307.165 60.4434H258.791V1.10719e-05H307.27Z" fill="url(#paint0_linear_1074_16)"/>
<path d="M214.195 32.833C214.195 132.971 295.353 214.154 395.481 214.195C295.353 214.237 214.195 295.419 214.195 395.558C214.195 295.419 133.037 214.236 32.9082 214.195C133.037 214.155 214.195 132.972 214.195 32.833Z" fill="url(#paint1_linear_1074_16)"/>
<path d="M686.286 263.398C686.286 272.783 685.075 281.058 682.653 288.223C680.332 295.387 677.002 301.593 672.663 306.841C668.425 312.088 663.379 316.478 657.526 320.01C651.674 323.542 645.266 326.367 638.303 328.486C631.441 330.605 624.125 332.119 616.354 333.027C608.685 333.936 600.865 334.39 592.893 334.39C582.398 334.39 572.71 333.582 563.83 331.968C554.95 330.454 546.574 328.032 538.703 324.702C530.933 321.271 523.415 316.882 516.149 311.533C508.985 306.185 501.82 299.676 494.655 292.007L525.534 260.674C528.36 267.637 532.245 274.095 537.189 280.049C542.134 285.902 547.533 290.947 553.386 295.186C559.34 299.424 565.495 302.754 571.853 305.176C578.21 307.598 584.214 308.809 589.865 308.809C596.525 308.809 602.782 308.354 608.635 307.446C614.488 306.437 619.584 304.823 623.923 302.603C628.262 300.382 631.643 297.456 634.064 293.823C636.587 290.09 637.849 285.448 637.849 279.897C637.849 275.659 636.89 272.026 634.973 268.999C633.055 265.972 630.533 263.398 627.404 261.279C624.377 259.059 620.896 257.192 616.96 255.679C613.024 254.165 608.988 252.904 604.851 251.895C600.814 250.785 596.828 249.826 592.893 249.019C588.957 248.11 585.476 247.202 582.448 246.294C576.494 244.578 570.288 242.762 563.83 240.845C557.372 238.826 551.014 236.556 544.758 234.033C538.501 231.51 532.548 228.634 526.896 225.405C521.346 222.075 516.452 218.19 512.214 213.75C507.976 209.209 504.595 204.012 502.072 198.159C499.549 192.205 498.288 185.394 498.288 177.725C498.288 168.542 499.398 160.418 501.618 153.354C503.939 146.19 507.168 139.984 511.306 134.736C515.443 129.489 520.337 125.099 525.988 121.567C531.639 117.935 537.845 115.059 544.606 112.939C551.368 110.719 558.532 109.155 566.101 108.247C573.77 107.238 581.59 106.733 589.562 106.733C600.461 106.733 610.35 107.743 619.23 109.761C628.212 111.779 636.486 114.655 644.055 118.389C651.623 122.122 658.535 126.613 664.792 131.86C671.149 137.007 677.103 142.759 682.653 149.116L651.774 180.449C649.353 173.184 645.972 166.624 641.633 160.771C637.395 154.919 632.652 149.924 627.404 145.786C622.157 141.548 616.657 138.319 610.905 136.099C605.153 133.778 599.603 132.617 594.255 132.617C587.292 132.617 580.884 133.122 575.031 134.131C569.178 135.039 564.133 136.603 559.895 138.823C555.757 140.942 552.528 143.869 550.207 147.603C547.886 151.235 546.726 155.776 546.726 161.226C546.726 165.565 547.583 169.248 549.299 172.275C551.014 175.303 553.285 177.876 556.11 179.995C559.037 182.114 562.316 183.88 565.949 185.293C569.582 186.605 573.316 187.765 577.15 188.774C581.086 189.784 584.921 190.692 588.654 191.499C592.489 192.205 595.97 193.013 599.099 193.921C605.153 195.636 611.511 197.453 618.171 199.37C624.831 201.287 631.39 203.558 637.849 206.182C644.307 208.704 650.463 211.631 656.315 214.961C662.168 218.291 667.315 222.277 671.755 226.919C676.195 231.46 679.727 236.758 682.351 242.812C684.974 248.766 686.286 255.628 686.286 263.398ZM903.952 242.207C903.952 254.922 902.035 266.829 898.2 277.93C894.366 289.03 888.815 298.717 881.55 306.992C874.284 315.166 865.404 321.624 854.909 326.367C844.414 331.11 832.507 333.481 819.187 333.481C808.994 333.481 799.61 331.514 791.032 327.578C782.556 323.542 775.29 317.386 769.235 309.111V410.679H718.073V155.171H737.751L760.456 193.164C762.676 186.807 765.703 181.055 769.538 175.908C773.474 170.661 777.964 166.221 783.01 162.588C788.156 158.854 793.757 155.978 799.812 153.96C805.967 151.942 812.425 150.933 819.187 150.933C832.507 150.933 844.414 153.304 854.909 158.047C865.404 162.79 874.284 169.299 881.55 177.573C888.815 185.747 894.366 195.384 898.2 206.484C902.035 217.585 903.952 229.492 903.952 242.207ZM852.033 242.207C852.033 237.767 851.781 233.075 851.276 228.13C850.873 223.084 850.116 218.089 849.006 213.145C847.896 208.2 846.332 203.457 844.313 198.916C842.396 194.375 839.924 190.389 836.896 186.958C833.869 183.426 830.186 180.651 825.847 178.633C821.608 176.514 816.664 175.454 811.013 175.454C805.16 175.454 800.064 176.463 795.725 178.481C791.486 180.5 787.803 183.275 784.675 186.807C781.647 190.238 779.125 194.224 777.106 198.765C775.189 203.205 773.675 207.897 772.565 212.842C771.455 217.786 770.648 222.782 770.144 227.827C769.74 232.873 769.538 237.666 769.538 242.207C769.538 246.243 769.841 250.734 770.446 255.679C771.052 260.522 772.01 265.417 773.322 270.361C774.634 275.306 776.35 280.099 778.469 284.741C780.588 289.383 783.161 293.521 786.188 297.153C789.317 300.786 792.899 303.713 796.936 305.933C801.073 308.052 805.765 309.111 811.013 309.111C816.765 309.111 821.76 308.102 825.998 306.084C830.236 303.965 833.869 301.19 836.896 297.759C839.924 294.227 842.396 290.19 844.313 285.649C846.332 281.108 847.896 276.366 849.006 271.421C850.116 266.476 850.873 261.481 851.276 256.436C851.781 251.39 852.033 246.647 852.033 242.207ZM1112.99 330H1061.83V309.111C1055.77 317.386 1048.46 323.542 1039.88 327.578C1031.4 331.514 1022.07 333.481 1011.88 333.481C998.557 333.481 986.649 331.11 976.154 326.367C965.66 321.624 956.779 315.166 949.514 306.992C942.248 298.717 936.698 289.03 932.863 277.93C929.029 266.829 927.111 254.922 927.111 242.207C927.111 229.492 929.029 217.585 932.863 206.484C936.698 195.384 942.248 185.747 949.514 177.573C956.779 169.299 965.66 162.79 976.154 158.047C986.649 153.304 998.557 150.933 1011.88 150.933C1018.64 150.933 1025.05 151.942 1031.1 153.96C1037.26 155.978 1042.86 158.854 1047.9 162.588C1053.05 166.221 1057.54 170.661 1061.37 175.908C1065.31 181.055 1068.39 186.807 1070.61 193.164L1093.31 155.171H1112.99V330ZM1061.53 242.207C1061.53 237.666 1061.27 232.873 1060.77 227.827C1060.36 222.782 1059.61 217.786 1058.5 212.842C1057.39 207.897 1055.82 203.205 1053.81 198.765C1051.89 194.224 1049.37 190.238 1046.24 186.807C1043.21 183.275 1039.53 180.5 1035.19 178.481C1030.85 176.463 1025.8 175.454 1020.05 175.454C1014.3 175.454 1009.3 176.514 1005.07 178.633C1000.83 180.651 997.194 183.426 994.167 186.958C991.14 190.389 988.617 194.375 986.599 198.916C984.681 203.457 983.168 208.2 982.058 213.145C980.948 218.089 980.14 223.084 979.636 228.13C979.232 233.075 979.03 237.767 979.03 242.207C979.03 246.647 979.232 251.39 979.636 256.436C980.14 261.481 980.948 266.476 982.058 271.421C983.168 276.366 984.681 281.108 986.599 285.649C988.617 290.19 991.14 294.227 994.167 297.759C997.194 301.19 1000.83 303.965 1005.07 306.084C1009.3 308.102 1014.3 309.111 1020.05 309.111C1025.3 309.111 1029.94 308.052 1033.98 305.933C1038.11 303.713 1041.7 300.786 1044.72 297.153C1047.85 293.521 1050.48 289.383 1052.59 284.741C1054.71 280.099 1056.43 275.306 1057.74 270.361C1059.05 265.417 1060.01 260.522 1060.62 255.679C1061.22 250.734 1061.53 246.243 1061.53 242.207ZM1221.67 330H1170.36V175.454H1138.57V155.171H1170.36V90.8398H1221.67V155.171H1274.65V175.454H1221.67V330ZM1352.15 112.939C1352.15 116.774 1351.39 120.407 1349.88 123.838C1348.47 127.269 1346.5 130.246 1343.98 132.769C1341.45 135.291 1338.48 137.31 1335.05 138.823C1331.61 140.236 1327.98 140.942 1324.15 140.942C1320.31 140.942 1316.68 140.236 1313.25 138.823C1309.92 137.31 1306.99 135.291 1304.47 132.769C1301.95 130.246 1299.93 127.269 1298.42 123.838C1297 120.407 1296.3 116.774 1296.3 112.939C1296.3 109.105 1297 105.522 1298.42 102.192C1299.93 98.7614 1301.95 95.7845 1304.47 93.2617C1306.99 90.7389 1309.92 88.7712 1313.25 87.3584C1316.68 85.8447 1320.31 85.0879 1324.15 85.0879C1327.98 85.0879 1331.61 85.8447 1335.05 87.3584C1338.48 88.7712 1341.45 90.7389 1343.98 93.2617C1346.5 95.7845 1348.47 98.7614 1349.88 102.192C1351.39 105.522 1352.15 109.105 1352.15 112.939ZM1349.88 330H1298.57V155.322H1349.88V330ZM1568.91 330H1517.75V309.111C1511.69 317.386 1504.38 323.542 1495.8 327.578C1487.32 331.514 1477.99 333.481 1467.79 333.481C1454.47 333.481 1442.57 331.11 1432.07 326.367C1421.58 321.624 1412.7 315.166 1405.43 306.992C1398.17 298.717 1392.62 289.03 1388.78 277.93C1384.95 266.829 1383.03 254.922 1383.03 242.207C1383.03 229.492 1384.95 217.585 1388.78 206.484C1392.62 195.384 1398.17 185.747 1405.43 177.573C1412.7 169.299 1421.58 162.79 1432.07 158.047C1442.57 153.304 1454.47 150.933 1467.79 150.933C1474.56 150.933 1480.96 151.942 1487.02 153.96C1493.17 155.978 1498.77 158.854 1503.82 162.588C1508.97 166.221 1513.46 170.661 1517.29 175.908C1521.23 181.055 1524.31 186.807 1526.53 193.164L1549.23 155.171H1568.91V330ZM1517.44 242.207C1517.44 237.666 1517.19 232.873 1516.69 227.827C1516.28 222.782 1515.53 217.786 1514.42 212.842C1513.31 207.897 1511.74 203.205 1509.72 198.765C1507.81 194.224 1505.28 190.238 1502.16 186.807C1499.13 183.275 1495.44 180.5 1491.11 178.481C1486.77 176.463 1481.72 175.454 1475.97 175.454C1470.22 175.454 1465.22 176.514 1460.98 178.633C1456.75 180.651 1453.11 183.426 1450.08 186.958C1447.06 190.389 1444.53 194.375 1442.52 198.916C1440.6 203.457 1439.09 208.2 1437.98 213.145C1436.87 218.089 1436.06 223.084 1435.55 228.13C1435.15 233.075 1434.95 237.767 1434.95 242.207C1434.95 246.647 1435.15 251.39 1435.55 256.436C1436.06 261.481 1436.87 266.476 1437.98 271.421C1439.09 276.366 1440.6 281.108 1442.52 285.649C1444.53 290.19 1447.06 294.227 1450.08 297.759C1453.11 301.19 1456.75 303.965 1460.98 306.084C1465.22 308.102 1470.22 309.111 1475.97 309.111C1481.22 309.111 1485.86 308.052 1489.89 305.933C1494.03 303.713 1497.61 300.786 1500.64 297.153C1503.77 293.521 1506.39 289.383 1508.51 284.741C1510.63 280.099 1512.35 275.306 1513.66 270.361C1514.97 265.417 1515.93 260.522 1516.54 255.679C1517.14 250.734 1517.44 246.243 1517.44 242.207ZM1662.91 330H1611.75V74.6436H1631.42L1662.91 127.773V330ZM1856.05 274.146C1856.05 281.815 1854.94 288.626 1852.72 294.58C1850.5 300.534 1847.47 305.731 1843.64 310.171C1839.81 314.51 1835.26 318.193 1830.02 321.221C1824.77 324.147 1819.12 326.519 1813.06 328.335C1807.11 330.151 1800.85 331.463 1794.29 332.271C1787.73 333.078 1781.23 333.481 1774.77 333.481C1766.09 333.481 1758.42 332.926 1751.76 331.816C1745.1 330.706 1738.74 328.94 1732.69 326.519C1726.63 323.996 1720.58 320.767 1714.52 316.831C1708.57 312.896 1701.91 308.102 1694.54 302.451L1724.36 278.081C1727.09 283.228 1730.67 287.92 1735.11 292.158C1739.65 296.296 1744.34 299.878 1749.19 302.905C1754.03 305.933 1758.72 308.254 1763.26 309.868C1767.8 311.483 1771.49 312.29 1774.31 312.29C1776.63 312.29 1779.26 312.24 1782.18 312.139C1785.11 311.937 1788.09 311.634 1791.12 311.23C1794.14 310.726 1797.12 310.02 1800.05 309.111C1802.97 308.203 1805.55 306.992 1807.77 305.479C1810.09 303.864 1811.9 301.896 1813.21 299.575C1814.63 297.153 1815.33 294.277 1815.33 290.947C1815.33 287.516 1814.43 284.539 1812.61 282.017C1810.89 279.393 1808.62 277.122 1805.8 275.205C1802.97 273.288 1799.74 271.673 1796.11 270.361C1792.48 269.049 1788.79 267.889 1785.06 266.88C1781.43 265.871 1777.9 265.013 1774.46 264.307C1771.03 263.499 1768.06 262.743 1765.53 262.036C1760.89 260.724 1756 259.412 1750.85 258.101C1745.71 256.688 1740.61 255.124 1735.56 253.408C1730.52 251.592 1725.67 249.473 1721.03 247.051C1716.49 244.629 1712.45 241.753 1708.92 238.423C1705.49 234.992 1702.72 231.006 1700.6 226.465C1698.58 221.823 1697.57 216.424 1697.57 210.269C1697.57 198.966 1699.79 189.531 1704.23 181.963C1708.77 174.294 1714.73 168.188 1722.09 163.647C1729.46 159.006 1737.83 155.726 1747.22 153.809C1756.6 151.891 1766.14 150.933 1775.83 150.933C1782.49 150.933 1789.5 151.639 1796.87 153.052C1804.23 154.364 1811.4 156.382 1818.36 159.106C1825.32 161.73 1831.83 164.959 1837.89 168.794C1843.94 172.629 1848.99 177.018 1853.02 181.963L1823.21 206.484C1820.99 200.43 1818.06 195.233 1814.43 190.894C1810.89 186.554 1807.01 183.022 1802.77 180.298C1798.63 177.472 1794.34 175.404 1789.9 174.092C1785.57 172.78 1781.53 172.124 1777.79 172.124C1774.16 172.124 1770.08 172.275 1765.53 172.578C1760.99 172.881 1756.7 173.739 1752.67 175.151C1748.73 176.564 1745.35 178.734 1742.53 181.66C1739.8 184.486 1738.44 188.421 1738.44 193.467C1738.44 197.1 1739.25 200.228 1740.86 202.852C1742.58 205.374 1744.8 207.594 1747.52 209.512C1750.25 211.328 1753.32 212.892 1756.75 214.204C1760.29 215.415 1763.87 216.525 1767.5 217.534C1771.13 218.442 1774.67 219.25 1778.1 219.956C1781.53 220.662 1784.61 221.419 1787.33 222.227C1791.97 223.538 1796.87 224.901 1802.01 226.313C1807.26 227.625 1812.41 229.189 1817.45 231.006C1822.5 232.721 1827.34 234.79 1831.98 237.212C1836.73 239.533 1840.86 242.409 1844.4 245.84C1847.93 249.271 1850.75 253.307 1852.87 257.949C1854.99 262.49 1856.05 267.889 1856.05 274.146ZM2067.21 229.795C2067.21 241.602 2065.75 253.913 2062.82 266.729C2059.99 279.544 2056.01 292.108 2050.86 304.419C2045.71 316.73 2039.56 328.285 2032.39 339.082C2025.23 349.98 2017.36 359.365 2008.78 367.236L1989.56 356.792C1992.28 351.746 1994.86 346.095 1997.28 339.839C1999.7 333.582 2001.87 326.973 2003.79 320.01C2005.8 312.946 2007.57 305.68 2009.08 298.213C2010.7 290.745 2012.01 283.379 2013.02 276.113C2014.13 268.747 2014.94 261.632 2015.44 254.771C2016.05 247.808 2016.35 241.349 2016.35 235.396C2016.35 231.46 2016.2 227.272 2015.9 222.832C2015.59 218.291 2014.94 213.8 2013.93 209.36C2013.02 204.819 2011.76 200.48 2010.14 196.343C2008.53 192.205 2006.36 188.573 2003.63 185.444C2001.01 182.316 1997.78 179.793 1993.95 177.876C1990.21 175.959 1985.77 175 1980.63 175C1975.58 175 1971.09 176.16 1967.16 178.481C1963.22 180.701 1959.74 183.678 1956.71 187.412C1953.68 191.045 1951.06 195.233 1948.84 199.976C1946.72 204.718 1944.95 209.613 1943.54 214.658C1942.23 219.603 1941.27 224.497 1940.67 229.341C1940.06 234.185 1939.76 238.524 1939.76 242.358V330H1888.44V90.8398H1939.61V180.903C1946.17 171.317 1954.19 163.95 1963.67 158.804C1973.26 153.556 1983.86 150.933 1995.46 150.933C2007.57 150.933 2018.12 152.9 2027.1 156.836C2036.08 160.771 2043.55 166.271 2049.5 173.335C2055.45 180.298 2059.89 188.623 2062.82 198.311C2065.75 207.897 2067.21 218.392 2067.21 229.795ZM2285.63 242.207C2285.63 251.289 2284.42 259.816 2282 267.788C2279.58 275.76 2276.2 283.127 2271.86 289.888C2267.62 296.649 2262.47 302.754 2256.42 308.203C2250.36 313.551 2243.7 318.092 2236.44 321.826C2229.27 325.56 2221.55 328.436 2213.28 330.454C2205.1 332.472 2196.68 333.481 2188 333.481C2179.32 333.481 2170.9 332.472 2162.72 330.454C2154.55 328.436 2146.83 325.56 2139.56 321.826C2132.4 318.092 2125.79 313.551 2119.73 308.203C2113.68 302.754 2108.48 296.649 2104.14 289.888C2099.9 283.127 2096.57 275.76 2094.15 267.788C2091.73 259.715 2090.52 251.188 2090.52 242.207C2090.52 233.226 2091.73 224.749 2094.15 216.777C2096.57 208.704 2099.9 201.287 2104.14 194.526C2108.48 187.765 2113.68 181.711 2119.73 176.362C2125.79 170.913 2132.4 166.322 2139.56 162.588C2146.83 158.854 2154.55 155.978 2162.72 153.96C2170.9 151.942 2179.32 150.933 2188 150.933C2196.68 150.933 2205.1 151.942 2213.28 153.96C2221.55 155.978 2229.27 158.854 2236.44 162.588C2243.7 166.322 2250.36 170.913 2256.42 176.362C2262.47 181.711 2267.62 187.765 2271.86 194.526C2276.2 201.287 2279.58 208.704 2282 216.777C2284.42 224.749 2285.63 233.226 2285.63 242.207ZM2233.56 242.207C2233.56 237.363 2233.26 232.267 2232.65 226.919C2232.15 221.47 2231.24 216.172 2229.93 211.025C2228.62 205.778 2226.8 200.783 2224.48 196.04C2222.26 191.196 2219.48 187.008 2216.15 183.477C2212.82 179.844 2208.84 176.968 2204.2 174.849C2199.55 172.629 2194.16 171.519 2188 171.519C2182.15 171.519 2176.95 172.629 2172.41 174.849C2167.87 177.069 2163.88 180.046 2160.45 183.779C2157.12 187.412 2154.3 191.65 2151.97 196.494C2149.75 201.338 2147.94 206.383 2146.53 211.631C2145.11 216.777 2144.1 222.025 2143.5 227.373C2142.89 232.62 2142.59 237.565 2142.59 242.207C2142.59 246.849 2142.89 251.844 2143.5 257.192C2144.1 262.44 2145.11 267.687 2146.53 272.935C2147.94 278.182 2149.75 283.228 2151.97 288.071C2154.3 292.814 2157.12 297.052 2160.45 300.786C2163.88 304.419 2167.87 307.345 2172.41 309.565C2176.95 311.785 2182.15 312.896 2188 312.896C2194.05 312.896 2199.4 311.836 2204.04 309.717C2208.69 307.497 2212.67 304.57 2216 300.938C2219.43 297.305 2222.26 293.117 2224.48 288.374C2226.7 283.631 2228.47 278.636 2229.78 273.389C2231.19 268.141 2232.15 262.843 2232.65 257.495C2233.26 252.147 2233.56 247.051 2233.56 242.207ZM2379.33 330H2328.01V175.454H2296.23V155.171H2328.01V90.8398H2379.33V155.171H2432.31V175.454H2379.33V330Z" fill="white"/>
<defs>
<linearGradient id="paint0_linear_1074_16" x1="214" y1="-1.24875e-05" x2="633.01" y2="495.034" gradientUnits="userSpaceOnUse">
<stop stop-color="#1D7BD0"/>
<stop offset="1" stop-color="#7E51CB"/>
</linearGradient>
<linearGradient id="paint1_linear_1074_16" x1="124.537" y1="173.556" x2="319.655" y2="261.481" gradientUnits="userSpaceOnUse">
<stop stop-color="#874DCA"/>
<stop offset="1" stop-color="#0D82D1"/>
</linearGradient>
</defs>
</svg>
