<svg width="428" height="428" viewBox="0 0 428 428" fill="none" xmlns="http://www.w3.org/2000/svg">
<path d="M60.4434 307.166C60.498 323.166 66.8777 338.495 78.1914 349.809C89.5051 361.122 104.834 367.503 120.834 367.558H169.209V428H120.73C104.869 427.993 89.1641 424.862 74.5127 418.786C59.8615 412.71 46.5506 403.807 35.3398 392.587C24.1291 381.366 15.2374 368.048 9.17383 353.392C3.11024 338.735 -0.00679722 323.027 0 307.166V258.791H60.4434V307.166ZM342.721 312.157C351.36 308.579 360.866 307.643 370.037 309.467C379.208 311.291 387.633 315.794 394.245 322.406C400.857 329.018 405.36 337.443 407.185 346.614C409.009 355.785 408.073 365.292 404.494 373.931C400.916 382.57 394.855 389.953 387.08 395.148C379.305 400.343 370.164 403.117 360.813 403.117C348.274 403.117 336.249 398.135 327.383 389.269C318.516 380.402 313.535 368.377 313.535 355.838C313.535 346.487 316.308 337.346 321.503 329.571C326.698 321.796 334.082 315.736 342.721 312.157ZM169.209 60.4805H120.834C104.834 60.5351 89.5051 66.9186 78.1914 78.2393C66.8777 89.5599 60.498 104.898 60.4434 120.908V169.209H0V120.805C0.00680016 104.934 3.1377 89.219 9.21387 74.5586C15.29 59.8983 24.1927 46.579 35.4131 35.3613C46.6335 24.1437 59.952 15.247 74.6084 9.17969C89.265 3.11239 104.973 -0.00679312 120.834 0H169.209V60.4805ZM307.27 0C323.131 0.00684796 338.835 3.13781 353.486 9.21387C368.138 15.29 381.449 24.1926 392.66 35.4131C403.871 46.6334 412.762 59.952 418.825 74.6084C424.889 89.265 428.007 104.973 428 120.834V169.209H367.557V120.834C367.502 104.834 361.122 89.5051 349.809 78.1914C338.495 66.8777 323.165 60.498 307.165 60.4434H258.791V0H307.27Z" fill="url(#paint0_linear_1074_16)"/>
<path d="M214.195 32.833C214.195 132.971 295.353 214.154 395.481 214.195C295.353 214.237 214.195 295.419 214.195 395.558C214.195 295.419 133.037 214.236 32.9082 214.195C133.037 214.155 214.195 132.972 214.195 32.833Z" fill="url(#paint1_linear_1074_16)"/>
<defs>
<linearGradient id="paint0_linear_1074_16" x1="214" y1="-1.24875e-05" x2="633.01" y2="495.034" gradientUnits="userSpaceOnUse">
<stop stop-color="#1D7BD0"/>
<stop offset="1" stop-color="#7E51CB"/>
</linearGradient>
<linearGradient id="paint1_linear_1074_16" x1="124.537" y1="173.556" x2="319.655" y2="261.481" gradientUnits="userSpaceOnUse">
<stop stop-color="#874DCA"/>
<stop offset="1" stop-color="#0D82D1"/>
</linearGradient>
</defs>
</svg>
