<svg width="1095" height="1095" viewBox="0 0 1095 1095" fill="none" xmlns="http://www.w3.org/2000/svg">
<path d="M154.638 785.856C154.778 826.791 171.101 866.009 200.046 894.954C228.991 923.899 268.209 940.223 309.144 940.362H432.907V1095H308.878C268.298 1094.98 228.12 1086.97 190.636 1071.43C153.152 1055.88 119.096 1033.11 90.4141 1004.4C61.7321 975.693 38.9849 941.617 23.4717 904.119C7.9586 866.622 -0.0173535 826.436 0 785.856V662.093H154.638V785.856ZM876.82 798.626C898.923 789.471 923.243 787.076 946.707 791.743C970.171 796.41 991.724 807.931 1008.64 824.848C1025.56 841.764 1037.08 863.317 1041.75 886.78C1046.41 910.244 1044.02 934.565 1034.86 956.667C1025.71 978.769 1010.2 997.661 990.311 1010.95C970.419 1024.24 947.033 1031.34 923.109 1031.34C891.029 1031.34 860.263 1018.59 837.579 995.909C814.895 973.225 802.15 942.458 802.15 910.378C802.15 886.455 809.245 863.068 822.536 843.177C835.827 823.285 854.718 807.781 876.82 798.626ZM432.907 154.733H309.144C268.209 154.873 228.991 171.205 200.046 200.168C171.101 229.131 154.777 268.374 154.638 309.333V432.907H0V309.067C0.017446 268.463 8.02796 228.259 23.5732 190.752C39.1186 153.245 61.8941 119.168 90.6006 90.4688C119.307 61.7692 153.382 39.008 190.88 23.4854C228.377 7.96269 268.564 -0.0174157 309.144 0H432.907V154.733ZM786.121 0C826.701 0.0174009 866.88 8.02792 904.364 23.5732C941.848 39.1185 975.904 61.8942 1004.59 90.6006C1033.27 119.307 1056.02 153.382 1071.53 190.88C1087.04 228.377 1095.02 268.564 1095 309.144V432.907H940.362V309.144C940.223 268.209 923.898 228.991 894.953 200.046C866.008 171.101 826.79 154.777 785.855 154.638H662.093V0H786.121Z" fill="white"/>
<path d="M548 84C548 340.26 755.74 548 1012 548C755.74 548 548 755.74 548 1012C548 755.74 340.26 548 84 548C340.26 548 548 340.26 548 84Z" fill="white"/>
</svg>
