<svg width="90" height="90" viewBox="0 0 90 90" fill="none" xmlns="http://www.w3.org/2000/svg">
<path d="M64.5909 12.71C67.9554 12.7215 71.1788 14.0631 73.5578 16.4421C75.9369 18.8212 77.2786 22.0446 77.29 25.409V35.5814H90V25.409C90.0014 22.0737 89.3459 18.7708 88.0708 15.6888C86.7958 12.6068 84.9262 9.8061 82.5688 7.44665C80.2113 5.0872 77.4122 3.21519 74.3313 1.93749C71.2504 0.659795 67.9481 0.00142994 64.6127 0H54.4186V12.71H64.5909Z" fill="#FABF0D"/>
<path d="M12.71 25.4246C12.7215 22.0581 14.0631 18.8327 16.4421 16.4522C18.8212 14.0717 22.0446 12.7293 25.409 12.7178H35.5814V2.3378e-06H25.409C22.0737 -0.00142909 18.7708 0.654498 15.6888 1.93034C12.6068 3.20617 9.8061 5.07695 7.44665 7.43582C5.0872 9.79469 3.21519 12.5955 1.93749 15.6783C0.659795 18.7611 0.00142994 22.0655 0 25.4028V35.5814H12.71V25.4246Z" fill="#EB493C"/>
<path d="M25.409 77.29C22.0446 77.2785 18.8212 75.9369 16.4421 73.5578C14.0631 71.1788 12.7215 67.9554 12.71 64.5909V54.4186H2.33637e-06V64.5909C-0.00142822 67.9262 0.654097 71.2292 1.92915 74.3112C3.20421 77.3932 5.07384 80.1939 7.43126 82.5533C9.78869 84.9128 12.5878 86.7848 15.6687 88.0625C18.7496 89.3402 22.0519 89.9985 25.3873 90H35.5814V77.29H25.409Z" fill="#4889F4"/>
<path d="M75.8721 84.7674C77.8384 84.7674 79.7606 84.1844 81.3955 83.0919C83.0304 81.9995 84.3047 80.4468 85.0572 78.6302C85.8096 76.8135 86.0065 74.8146 85.6229 72.886C85.2393 70.9575 84.2924 69.1861 82.902 67.7957C81.5116 66.4053 79.7402 65.4584 77.8116 65.0748C75.8831 64.6912 73.8841 64.888 72.0675 65.6405C70.2509 66.393 68.6982 67.6673 67.6057 69.3022C66.5133 70.9371 65.9302 72.8593 65.9302 74.8256C65.9302 77.4623 66.9777 79.9911 68.8422 81.8555C70.7066 83.72 73.2354 84.7674 75.8721 84.7674Z" fill="#3AAB58"/>
<path d="M45 61.7442C48.3117 61.7442 51.549 60.7007 54.3025 58.7459C57.0561 56.791 59.2023 54.0125 60.4696 50.7617C61.7369 47.5108 62.0685 43.9337 61.4224 40.4827C60.7764 37.0316 59.1816 33.8616 56.8399 31.3736C54.4982 28.8855 51.5147 27.1911 48.2666 26.5046C45.0186 25.8182 41.6519 26.1705 38.5923 27.517C35.5327 28.8636 32.9176 31.1439 31.0777 34.0695C29.2378 36.9952 28.2558 40.4348 28.2558 43.9535C28.2558 48.6719 30.0199 53.197 33.1601 56.5334C36.3002 59.8698 40.5591 61.7442 45 61.7442Z" fill="#4889F4"/>
</svg>
